0
SECTION
2
HEADER
9
$INSUNITS
70
4
9
$INSBASE
10
0.0
20
0.0
30
0.0
9
$EXTMIN
10
0
20
0
9
$EXTMAX
10
81.17500000000001
20
100.22500000000001
0
ENDSEC
0
SECTION
2
TABLES
0
TABLE
2
LTYPE
70
1
0
LTYPE
2
CONTINUOUS
70
64
3
Solid line
72
65
73
0
40
0.0
0
ENDTAB
0
TABLE
2
LAYER
70
1
0
LAYER
2
Layer1
70
64
62
7
6
CONTINUOUS
0
ENDTAB
0
TABLE
2
STYLE
70
0
0
ENDTAB
0
TABLE
2
VIEW
70
0
0
ENDTAB
0
ENDSEC
0
SECTION
2
BLOCKS
0
ENDSEC
0
SECTION
2
ENTITIES
0
POLYLINE
5
2dc
8
Layer1
66
1
10
0.0
20
0.0
30
0.0
70
1
0
VERTEX
5
2dd
8
Layer1
10
0.0000
20
0.0000
30
0.0
0
VERTEX
5
2de
8
Layer1
10
81.1750
20
0.0000
30
0.0
0
VERTEX
5
2df
8
Layer1
10
81.1750
20
100.2250
30
0.0
0
VERTEX
5
2e0
8
Layer1
10
0.0000
20
100.2250
30
0.0
0
VERTEX
5
2e1
8
Layer1
10
0.0000
20
0.0000
30
0.0
0
SEQEND
5
2e2
8
Layer1
0
POLYLINE
5
2e3
8
Layer1
66
1
10
0.0
20
0.0
30
0.0
70
1
0
VERTEX
5
2e4
8
Layer1
10
19.0250
20
82.2000
30
0.0
0
VERTEX
5
2e5
8
Layer1
10
19.8250
20
82.2000
30
0.0
0
VERTEX
5
2e6
8
Layer1
10
19.8250
20
94.2000
30
0.0
0
VERTEX
5
2e7
8
Layer1
10
19.0250
20
94.2000
30
0.0
0
VERTEX
5
2e8
8
Layer1
10
19.0250
20
95.2000
30
0.0
0
VERTEX
5
2e9
8
Layer1
10
5.0250
20
95.2000
30
0.0
0
VERTEX
5
2ea
8
Layer1
10
5.0250
20
94.2000
30
0.0
0
VERTEX
5
2eb
8
Layer1
10
4.2250
20
94.2000
30
0.0
0
VERTEX
5
2ec
8
Layer1
10
4.2250
20
82.2000
30
0.0
0
VERTEX
5
2ed
8
Layer1
10
5.0250
20
82.2000
30
0.0
0
VERTEX
5
2ee
8
Layer1
10
5.0250
20
81.2000
30
0.0
0
VERTEX
5
2ef
8
Layer1
10
19.0250
20
81.2000
30
0.0
0
VERTEX
5
2f0
8
Layer1
10
19.0250
20
82.2000
30
0.0
0
SEQEND
5
2f1
8
Layer1
0
POLYLINE
5
2f2
8
Layer1
66
1
10
0.0
20
0.0
30
0.0
70
1
0
VERTEX
5
2f3
8
Layer1
10
38.0750
20
82.2000
30
0.0
0
VERTEX
5
2f4
8
Layer1
10
38.8750
20
82.2000
30
0.0
0
VERTEX
5
2f5
8
Layer1
10
38.8750
20
94.2000
30
0.0
0
VERTEX
5
2f6
8
Layer1
10
38.0750
20
94.2000
30
0.0
0
VERTEX
5
2f7
8
Layer1
10
38.0750
20
95.2000
30
0.0
0
VERTEX
5
2f8
8
Layer1
10
24.0750
20
95.2000
30
0.0
0
VERTEX
5
2f9
8
Layer1
10
24.0750
20
94.2000
30
0.0
0
VERTEX
5
2fa
8
Layer1
10
23.2750
20
94.2000
30
0.0
0
VERTEX
5
2fb
8
Layer1
10
23.2750
20
82.2000
30
0.0
0
VERTEX
5
2fc
8
Layer1
10
24.0750
20
82.2000
30
0.0
0
VERTEX
5
2fd
8
Layer1
10
24.0750
20
81.2000
30
0.0
0
VERTEX
5
2fe
8
Layer1
10
38.0750
20
81.2000
30
0.0
0
VERTEX
5
2ff
8
Layer1
10
38.0750
20
82.2000
30
0.0
0
SEQEND
5
300
8
Layer1
0
POLYLINE
5
301
8
Layer1
66
1
10
0.0
20
0.0
30
0.0
70
1
0
VERTEX
5
302
8
Layer1
10
57.1250
20
82.2000
30
0.0
0
VERTEX
5
303
8
Layer1
10
57.9250
20
82.2000
30
0.0
0
VERTEX
5
304
8
Layer1
10
57.9250
20
94.2000
30
0.0
0
VERTEX
5
305
8
Layer1
10
57.1250
20
94.2000
30
0.0
0
VERTEX
5
306
8
Layer1
10
57.1250
20
95.2000
30
0.0
0
VERTEX
5
307
8
Layer1
10
43.1250
20
95.2000
30
0.0
0
VERTEX
5
308
8
Layer1
10
43.1250
20
94.2000
30
0.0
0
VERTEX
5
309
8
Layer1
10
42.3250
20
94.2000
30
0.0
0
VERTEX
5
30a
8
Layer1
10
42.3250
20
82.2000
30
0.0
0
VERTEX
5
30b
8
Layer1
10
43.1250
20
82.2000
30
0.0
0
VERTEX
5
30c
8
Layer1
10
43.1250
20
81.2000
30
0.0
0
VERTEX
5
30d
8
Layer1
10
57.1250
20
81.2000
30
0.0
0
VERTEX
5
30e
8
Layer1
10
57.1250
20
82.2000
30
0.0
0
SEQEND
5
30f
8
Layer1
0
POLYLINE
5
310
8
Layer1
66
1
10
0.0
20
0.0
30
0.0
70
1
0
VERTEX
5
311
8
Layer1
10
76.1750
20
82.2000
30
0.0
0
VERTEX
5
312
8
Layer1
10
76.9750
20
82.2000
30
0.0
0
VERTEX
5
313
8
Layer1
10
76.9750
20
94.2000
30
0.0
0
VERTEX
5
314
8
Layer1
10
76.1750
20
94.2000
30
0.0
0
VERTEX
5
315
8
Layer1
10
76.1750
20
95.2000
30
0.0
0
VERTEX
5
316
8
Layer1
10
62.1750
20
95.2000
30
0.0
0
VERTEX
5
317
8
Layer1
10
62.1750
20
94.2000
30
0.0
0
VERTEX
5
318
8
Layer1
10
61.3750
20
94.2000
30
0.0
0
VERTEX
5
319
8
Layer1
10
61.3750
20
82.2000
30
0.0
0
VERTEX
5
31a
8
Layer1
10
62.1750
20
82.2000
30
0.0
0
VERTEX
5
31b
8
Layer1
10
62.1750
20
81.2000
30
0.0
0
VERTEX
5
31c
8
Layer1
10
76.1750
20
81.2000
30
0.0
0
VERTEX
5
31d
8
Layer1
10
76.1750
20
82.2000
30
0.0
0
SEQEND
5
31e
8
Layer1
0
POLYLINE
5
31f
8
Layer1
66
1
10
0.0
20
0.0
30
0.0
70
1
0
VERTEX
5
320
8
Layer1
10
19.0250
20
63.1500
30
0.0
0
VERTEX
5
321
8
Layer1
10
19.8250
20
63.1500
30
0.0
0
VERTEX
5
322
8
Layer1
10
19.8250
20
75.1500
30
0.0
0
VERTEX
5
323
8
Layer1
10
19.0250
20
75.1500
30
0.0
0
VERTEX
5
324
8
Layer1
10
19.0250
20
76.1500
30
0.0
0
VERTEX
5
325
8
Layer1
10
5.0250
20
76.1500
30
0.0
0
VERTEX
5
326
8
Layer1
10
5.0250
20
75.1500
30
0.0
0
VERTEX
5
327
8
Layer1
10
4.2250
20
75.1500
30
0.0
0
VERTEX
5
328
8
Layer1
10
4.2250
20
63.1500
30
0.0
0
VERTEX
5
329
8
Layer1
10
5.0250
20
63.1500
30
0.0
0
VERTEX
5
32a
8
Layer1
10
5.0250
20
62.1500
30
0.0
0
VERTEX
5
32b
8
Layer1
10
19.0250
20
62.1500
30
0.0
0
VERTEX
5
32c
8
Layer1
10
19.0250
20
63.1500
30
0.0
0
SEQEND
5
32d
8
Layer1
0
POLYLINE
5
32e
8
Layer1
66
1
10
0.0
20
0.0
30
0.0
70
1
0
VERTEX
5
32f
8
Layer1
10
38.0750
20
63.1500
30
0.0
0
VERTEX
5
330
8
Layer1
10
38.8750
20
63.1500
30
0.0
0
VERTEX
5
331
8
Layer1
10
38.8750
20
75.1500
30
0.0
0
VERTEX
5
332
8
Layer1
10
38.0750
20
75.1500
30
0.0
0
VERTEX
5
333
8
Layer1
10
38.0750
20
76.1500
30
0.0
0
VERTEX
5
334
8
Layer1
10
24.0750
20
76.1500
30
0.0
0
VERTEX
5
335
8
Layer1
10
24.0750
20
75.1500
30
0.0
0
VERTEX
5
336
8
Layer1
10
23.2750
20
75.1500
30
0.0
0
VERTEX
5
337
8
Layer1
10
23.2750
20
63.1500
30
0.0
0
VERTEX
5
338
8
Layer1
10
24.0750
20
63.1500
30
0.0
0
VERTEX
5
339
8
Layer1
10
24.0750
20
62.1500
30
0.0
0
VERTEX
5
33a
8
Layer1
10
38.0750
20
62.1500
30
0.0
0
VERTEX
5
33b
8
Layer1
10
38.0750
20
63.1500
30
0.0
0
SEQEND
5
33c
8
Layer1
0
POLYLINE
5
33d
8
Layer1
66
1
10
0.0
20
0.0
30
0.0
70
1
0
VERTEX
5
33e
8
Layer1
10
57.1250
20
63.1500
30
0.0
0
VERTEX
5
33f
8
Layer1
10
57.9250
20
63.1500
30
0.0
0
VERTEX
5
340
8
Layer1
10
57.9250
20
75.1500
30
0.0
0
VERTEX
5
341
8
Layer1
10
57.1250
20
75.1500
30
0.0
0
VERTEX
5
342
8
Layer1
10
57.1250
20
76.1500
30
0.0
0
VERTEX
5
343
8
Layer1
10
43.1250
20
76.1500
30
0.0
0
VERTEX
5
344
8
Layer1
10
43.1250
20
75.1500
30
0.0
0
VERTEX
5
345
8
Layer1
10
42.3250
20
75.1500
30
0.0
0
VERTEX
5
346
8
Layer1
10
42.3250
20
63.1500
30
0.0
0
VERTEX
5
347
8
Layer1
10
43.1250
20
63.1500
30
0.0
0
VERTEX
5
348
8
Layer1
10
43.1250
20
62.1500
30
0.0
0
VERTEX
5
349
8
Layer1
10
57.1250
20
62.1500
30
0.0
0
VERTEX
5
34a
8
Layer1
10
57.1250
20
63.1500
30
0.0
0
SEQEND
5
34b
8
Layer1
0
POLYLINE
5
34c
8
Layer1
66
1
10
0.0
20
0.0
30
0.0
70
1
0
VERTEX
5
34d
8
Layer1
10
62.4050
20
70.0250
30
0.0
0
VERTEX
5
34e
8
Layer1
10
62.4050
20
68.2000
30
0.0
0
VERTEX
5
34f
8
Layer1
10
63.2050
20
68.2000
30
0.0
0
VERTEX
5
350
8
Layer1
10
63.2050
20
67.4250
30
0.0
0
VERTEX
5
351
8
Layer1
10
63.1750
20
67.4250
30
0.0
0
VERTEX
5
352
8
Layer1
10
63.1750
20
66.6250
30
0.0
0
VERTEX
5
353
8
Layer1
10
62.1750
20
66.6250
30
0.0
0
VERTEX
5
354
8
Layer1
10
62.1750
20
52.6250
30
0.0
0
VERTEX
5
355
8
Layer1
10
63.1750
20
52.6250
30
0.0
0
VERTEX
5
356
8
Layer1
10
63.1750
20
51.8250
30
0.0
0
VERTEX
5
357
8
Layer1
10
63.2050
20
51.8250
30
0.0
0
VERTEX
5
358
8
Layer1
10
63.2050
20
51.0500
30
0.0
0
VERTEX
5
359
8
Layer1
10
62.4050
20
51.0500
30
0.0
0
VERTEX
5
35a
8
Layer1
10
62.4050
20
49.2250
30
0.0
0
VERTEX
5
35b
8
Layer1
10
61.2050
20
49.2250
30
0.0
0
VERTEX
5
35c
8
Layer1
10
61.2050
20
46.2250
30
0.0
0
VERTEX
5
35d
8
Layer1
10
62.4050
20
46.2250
30
0.0
0
VERTEX
5
35e
8
Layer1
10
62.4050
20
44.4000
30
0.0
0
VERTEX
5
35f
8
Layer1
10
68.6750
20
44.4000
30
0.0
0
VERTEX
5
360
8
Layer1
10
68.6750
20
43.5250
30
0.0
0
VERTEX
5
361
8
Layer1
10
71.4750
20
43.5250
30
0.0
0
VERTEX
5
362
8
Layer1
10
71.4750
20
44.4000
30
0.0
0
VERTEX
5
363
8
Layer1
10
74.7050
20
44.4000
30
0.0
0
VERTEX
5
364
8
Layer1
10
74.7050
20
51.0500
30
0.0
0
VERTEX
5
365
8
Layer1
10
73.9050
20
51.0500
30
0.0
0
VERTEX
5
366
8
Layer1
10
73.9050
20
51.8250
30
0.0
0
VERTEX
5
367
8
Layer1
10
75.1750
20
51.8250
30
0.0
0
VERTEX
5
368
8
Layer1
10
75.1750
20
52.6250
30
0.0
0
VERTEX
5
369
8
Layer1
10
76.1750
20
52.6250
30
0.0
0
VERTEX
5
36a
8
Layer1
10
76.1750
20
66.6250
30
0.0
0
VERTEX
5
36b
8
Layer1
10
75.1750
20
66.6250
30
0.0
0
VERTEX
5
36c
8
Layer1
10
75.1750
20
67.4250
30
0.0
0
VERTEX
5
36d
8
Layer1
10
73.9050
20
67.4250
30
0.0
0
VERTEX
5
36e
8
Layer1
10
73.9050
20
68.2000
30
0.0
0
VERTEX
5
36f
8
Layer1
10
74.7050
20
68.2000
30
0.0
0
VERTEX
5
370
8
Layer1
10
74.7050
20
74.8500
30
0.0
0
VERTEX
5
371
8
Layer1
10
71.4750
20
74.8500
30
0.0
0
VERTEX
5
372
8
Layer1
10
71.4750
20
75.7250
30
0.0
0
VERTEX
5
373
8
Layer1
10
68.6750
20
75.7250
30
0.0
0
VERTEX
5
374
8
Layer1
10
68.6750
20
74.8500
30
0.0
0
VERTEX
5
375
8
Layer1
10
62.4050
20
74.8500
30
0.0
0
VERTEX
5
376
8
Layer1
10
62.4050
20
73.0250
30
0.0
0
VERTEX
5
377
8
Layer1
10
61.2050
20
73.0250
30
0.0
0
VERTEX
5
378
8
Layer1
10
61.2050
20
70.0250
30
0.0
0
VERTEX
5
379
8
Layer1
10
62.4050
20
70.0250
30
0.0
0
SEQEND
5
37a
8
Layer1
0
POLYLINE
5
37b
8
Layer1
66
1
10
0.0
20
0.0
30
0.0
70
1
0
VERTEX
5
37c
8
Layer1
10
19.0250
20
44.1000
30
0.0
0
VERTEX
5
37d
8
Layer1
10
19.8250
20
44.1000
30
0.0
0
VERTEX
5
37e
8
Layer1
10
19.8250
20
56.1000
30
0.0
0
VERTEX
5
37f
8
Layer1
10
19.0250
20
56.1000
30
0.0
0
VERTEX
5
380
8
Layer1
10
19.0250
20
57.1000
30
0.0
0
VERTEX
5
381
8
Layer1
10
5.0250
20
57.1000
30
0.0
0
VERTEX
5
382
8
Layer1
10
5.0250
20
56.1000
30
0.0
0
VERTEX
5
383
8
Layer1
10
4.2250
20
56.1000
30
0.0
0
VERTEX
5
384
8
Layer1
10
4.2250
20
44.1000
30
0.0
0
VERTEX
5
385
8
Layer1
10
5.0250
20
44.1000
30
0.0
0
VERTEX
5
386
8
Layer1
10
5.0250
20
43.1000
30
0.0
0
VERTEX
5
387
8
Layer1
10
19.0250
20
43.1000
30
0.0
0
VERTEX
5
388
8
Layer1
10
19.0250
20
44.1000
30
0.0
0
SEQEND
5
389
8
Layer1
0
POLYLINE
5
38a
8
Layer1
66
1
10
0.0
20
0.0
30
0.0
70
1
0
VERTEX
5
38b
8
Layer1
10
38.0750
20
44.1000
30
0.0
0
VERTEX
5
38c
8
Layer1
10
38.8750
20
44.1000
30
0.0
0
VERTEX
5
38d
8
Layer1
10
38.8750
20
56.1000
30
0.0
0
VERTEX
5
38e
8
Layer1
10
38.0750
20
56.1000
30
0.0
0
VERTEX
5
38f
8
Layer1
10
38.0750
20
57.1000
30
0.0
0
VERTEX
5
390
8
Layer1
10
24.0750
20
57.1000
30
0.0
0
VERTEX
5
391
8
Layer1
10
24.0750
20
56.1000
30
0.0
0
VERTEX
5
392
8
Layer1
10
23.2750
20
56.1000
30
0.0
0
VERTEX
5
393
8
Layer1
10
23.2750
20
44.1000
30
0.0
0
VERTEX
5
394
8
Layer1
10
24.0750
20
44.1000
30
0.0
0
VERTEX
5
395
8
Layer1
10
24.0750
20
43.1000
30
0.0
0
VERTEX
5
396
8
Layer1
10
38.0750
20
43.1000
30
0.0
0
VERTEX
5
397
8
Layer1
10
38.0750
20
44.1000
30
0.0
0
SEQEND
5
398
8
Layer1
0
POLYLINE
5
399
8
Layer1
66
1
10
0.0
20
0.0
30
0.0
70
1
0
VERTEX
5
39a
8
Layer1
10
57.1250
20
44.1000
30
0.0
0
VERTEX
5
39b
8
Layer1
10
57.9250
20
44.1000
30
0.0
0
VERTEX
5
39c
8
Layer1
10
57.9250
20
56.1000
30
0.0
0
VERTEX
5
39d
8
Layer1
10
57.1250
20
56.1000
30
0.0
0
VERTEX
5
39e
8
Layer1
10
57.1250
20
57.1000
30
0.0
0
VERTEX
5
39f
8
Layer1
10
43.1250
20
57.1000
30
0.0
0
VERTEX
5
3a0
8
Layer1
10
43.1250
20
56.1000
30
0.0
0
VERTEX
5
3a1
8
Layer1
10
42.3250
20
56.1000
30
0.0
0
VERTEX
5
3a2
8
Layer1
10
42.3250
20
44.1000
30
0.0
0
VERTEX
5
3a3
8
Layer1
10
43.1250
20
44.1000
30
0.0
0
VERTEX
5
3a4
8
Layer1
10
43.1250
20
43.1000
30
0.0
0
VERTEX
5
3a5
8
Layer1
10
57.1250
20
43.1000
30
0.0
0
VERTEX
5
3a6
8
Layer1
10
57.1250
20
44.1000
30
0.0
0
SEQEND
5
3a7
8
Layer1
0
POLYLINE
5
3a8
8
Layer1
66
1
10
0.0
20
0.0
30
0.0
70
1
0
VERTEX
5
3a9
8
Layer1
10
19.0250
20
25.0500
30
0.0
0
VERTEX
5
3aa
8
Layer1
10
19.8250
20
25.0500
30
0.0
0
VERTEX
5
3ab
8
Layer1
10
19.8250
20
37.0500
30
0.0
0
VERTEX
5
3ac
8
Layer1
10
19.0250
20
37.0500
30
0.0
0
VERTEX
5
3ad
8
Layer1
10
19.0250
20
38.0500
30
0.0
0
VERTEX
5
3ae
8
Layer1
10
5.0250
20
38.0500
30
0.0
0
VERTEX
5
3af
8
Layer1
10
5.0250
20
37.0500
30
0.0
0
VERTEX
5
3b0
8
Layer1
10
4.2250
20
37.0500
30
0.0
0
VERTEX
5
3b1
8
Layer1
10
4.2250
20
25.0500
30
0.0
0
VERTEX
5
3b2
8
Layer1
10
5.0250
20
25.0500
30
0.0
0
VERTEX
5
3b3
8
Layer1
10
5.0250
20
24.0500
30
0.0
0
VERTEX
5
3b4
8
Layer1
10
19.0250
20
24.0500
30
0.0
0
VERTEX
5
3b5
8
Layer1
10
19.0250
20
25.0500
30
0.0
0
SEQEND
5
3b6
8
Layer1
0
POLYLINE
5
3b7
8
Layer1
66
1
10
0.0
20
0.0
30
0.0
70
1
0
VERTEX
5
3b8
8
Layer1
10
38.0750
20
25.0500
30
0.0
0
VERTEX
5
3b9
8
Layer1
10
38.8750
20
25.0500
30
0.0
0
VERTEX
5
3ba
8
Layer1
10
38.8750
20
37.0500
30
0.0
0
VERTEX
5
3bb
8
Layer1
10
38.0750
20
37.0500
30
0.0
0
VERTEX
5
3bc
8
Layer1
10
38.0750
20
38.0500
30
0.0
0
VERTEX
5
3bd
8
Layer1
10
24.0750
20
38.0500
30
0.0
0
VERTEX
5
3be
8
Layer1
10
24.0750
20
37.0500
30
0.0
0
VERTEX
5
3bf
8
Layer1
10
23.2750
20
37.0500
30
0.0
0
VERTEX
5
3c0
8
Layer1
10
23.2750
20
25.0500
30
0.0
0
VERTEX
5
3c1
8
Layer1
10
24.0750
20
25.0500
30
0.0
0
VERTEX
5
3c2
8
Layer1
10
24.0750
20
24.0500
30
0.0
0
VERTEX
5
3c3
8
Layer1
10
38.0750
20
24.0500
30
0.0
0
VERTEX
5
3c4
8
Layer1
10
38.0750
20
25.0500
30
0.0
0
SEQEND
5
3c5
8
Layer1
0
POLYLINE
5
3c6
8
Layer1
66
1
10
0.0
20
0.0
30
0.0
70
1
0
VERTEX
5
3c7
8
Layer1
10
57.1250
20
25.0500
30
0.0
0
VERTEX
5
3c8
8
Layer1
10
57.9250
20
25.0500
30
0.0
0
VERTEX
5
3c9
8
Layer1
10
57.9250
20
37.0500
30
0.0
0
VERTEX
5
3ca
8
Layer1
10
57.1250
20
37.0500
30
0.0
0
VERTEX
5
3cb
8
Layer1
10
57.1250
20
38.0500
30
0.0
0
VERTEX
5
3cc
8
Layer1
10
43.1250
20
38.0500
30
0.0
0
VERTEX
5
3cd
8
Layer1
10
43.1250
20
37.0500
30
0.0
0
VERTEX
5
3ce
8
Layer1
10
42.3250
20
37.0500
30
0.0
0
VERTEX
5
3cf
8
Layer1
10
42.3250
20
25.0500
30
0.0
0
VERTEX
5
3d0
8
Layer1
10
43.1250
20
25.0500
30
0.0
0
VERTEX
5
3d1
8
Layer1
10
43.1250
20
24.0500
30
0.0
0
VERTEX
5
3d2
8
Layer1
10
57.1250
20
24.0500
30
0.0
0
VERTEX
5
3d3
8
Layer1
10
57.1250
20
25.0500
30
0.0
0
SEQEND
5
3d4
8
Layer1
0
POLYLINE
5
3d5
8
Layer1
66
1
10
0.0
20
0.0
30
0.0
70
1
0
VERTEX
5
3d6
8
Layer1
10
62.4050
20
31.9250
30
0.0
0
VERTEX
5
3d7
8
Layer1
10
62.4050
20
30.1000
30
0.0
0
VERTEX
5
3d8
8
Layer1
10
63.2050
20
30.1000
30
0.0
0
VERTEX
5
3d9
8
Layer1
10
63.2050
20
29.3250
30
0.0
0
VERTEX
5
3da
8
Layer1
10
63.1750
20
29.3250
30
0.0
0
VERTEX
5
3db
8
Layer1
10
63.1750
20
28.5250
30
0.0
0
VERTEX
5
3dc
8
Layer1
10
62.1750
20
28.5250
30
0.0
0
VERTEX
5
3dd
8
Layer1
10
62.1750
20
14.5250
30
0.0
0
VERTEX
5
3de
8
Layer1
10
63.1750
20
14.5250
30
0.0
0
VERTEX
5
3df
8
Layer1
10
63.1750
20
13.7250
30
0.0
0
VERTEX
5
3e0
8
Layer1
10
63.2050
20
13.7250
30
0.0
0
VERTEX
5
3e1
8
Layer1
10
63.2050
20
12.9500
30
0.0
0
VERTEX
5
3e2
8
Layer1
10
62.4050
20
12.9500
30
0.0
0
VERTEX
5
3e3
8
Layer1
10
62.4050
20
11.1250
30
0.0
0
VERTEX
5
3e4
8
Layer1
10
61.2050
20
11.1250
30
0.0
0
VERTEX
5
3e5
8
Layer1
10
61.2050
20
8.1250
30
0.0
0
VERTEX
5
3e6
8
Layer1
10
62.4050
20
8.1250
30
0.0
0
VERTEX
5
3e7
8
Layer1
10
62.4050
20
6.3000
30
0.0
0
VERTEX
5
3e8
8
Layer1
10
68.6750
20
6.3000
30
0.0
0
VERTEX
5
3e9
8
Layer1
10
68.6750
20
5.4250
30
0.0
0
VERTEX
5
3ea
8
Layer1
10
71.4750
20
5.4250
30
0.0
0
VERTEX
5
3eb
8
Layer1
10
71.4750
20
6.3000
30
0.0
0
VERTEX
5
3ec
8
Layer1
10
74.7050
20
6.3000
30
0.0
0
VERTEX
5
3ed
8
Layer1
10
74.7050
20
12.9500
30
0.0
0
VERTEX
5
3ee
8
Layer1
10
73.9050
20
12.9500
30
0.0
0
VERTEX
5
3ef
8
Layer1
10
73.9050
20
13.7250
30
0.0
0
VERTEX
5
3f0
8
Layer1
10
75.1750
20
13.7250
30
0.0
0
VERTEX
5
3f1
8
Layer1
10
75.1750
20
14.5250
30
0.0
0
VERTEX
5
3f2
8
Layer1
10
76.1750
20
14.5250
30
0.0
0
VERTEX
5
3f3
8
Layer1
10
76.1750
20
28.5250
30
0.0
0
VERTEX
5
3f4
8
Layer1
10
75.1750
20
28.5250
30
0.0
0
VERTEX
5
3f5
8
Layer1
10
75.1750
20
29.3250
30
0.0
0
VERTEX
5
3f6
8
Layer1
10
73.9050
20
29.3250
30
0.0
0
VERTEX
5
3f7
8
Layer1
10
73.9050
20
30.1000
30
0.0
0
VERTEX
5
3f8
8
Layer1
10
74.7050
20
30.1000
30
0.0
0
VERTEX
5
3f9
8
Layer1
10
74.7050
20
36.7500
30
0.0
0
VERTEX
5
3fa
8
Layer1
10
71.4750
20
36.7500
30
0.0
0
VERTEX
5
3fb
8
Layer1
10
71.4750
20
37.6250
30
0.0
0
VERTEX
5
3fc
8
Layer1
10
68.6750
20
37.6250
30
0.0
0
VERTEX
5
3fd
8
Layer1
10
68.6750
20
36.7500
30
0.0
0
VERTEX
5
3fe
8
Layer1
10
62.4050
20
36.7500
30
0.0
0
VERTEX
5
3ff
8
Layer1
10
62.4050
20
34.9250
30
0.0
0
VERTEX
5
400
8
Layer1
10
61.2050
20
34.9250
30
0.0
0
VERTEX
5
401
8
Layer1
10
61.2050
20
31.9250
30
0.0
0
VERTEX
5
402
8
Layer1
10
62.4050
20
31.9250
30
0.0
0
SEQEND
5
403
8
Layer1
0
POLYLINE
5
404
8
Layer1
66
1
10
0.0
20
0.0
30
0.0
70
1
0
VERTEX
5
405
8
Layer1
10
11.1500
20
5.2300
30
0.0
0
VERTEX
5
406
8
Layer1
10
12.9750
20
5.2300
30
0.0
0
VERTEX
5
407
8
Layer1
10
12.9750
20
6.0300
30
0.0
0
VERTEX
5
408
8
Layer1
10
13.7500
20
6.0300
30
0.0
0
VERTEX
5
409
8
Layer1
10
13.7500
20
6.0000
30
0.0
0
VERTEX
5
40a
8
Layer1
10
14.5500
20
6.0000
30
0.0
0
VERTEX
5
40b
8
Layer1
10
14.5500
20
5.0000
30
0.0
0
VERTEX
5
40c
8
Layer1
10
28.5500
20
5.0000
30
0.0
0
VERTEX
5
40d
8
Layer1
10
28.5500
20
6.0000
30
0.0
0
VERTEX
5
40e
8
Layer1
10
29.3500
20
6.0000
30
0.0
0
VERTEX
5
40f
8
Layer1
10
29.3500
20
6.0300
30
0.0
0
VERTEX
5
410
8
Layer1
10
30.1250
20
6.0300
30
0.0
0
VERTEX
5
411
8
Layer1
10
30.1250
20
5.2300
30
0.0
0
VERTEX
5
412
8
Layer1
10
31.9500
20
5.2300
30
0.0
0
VERTEX
5
413
8
Layer1
10
31.9500
20
4.0300
30
0.0
0
VERTEX
5
414
8
Layer1
10
34.9500
20
4.0300
30
0.0
0
VERTEX
5
415
8
Layer1
10
34.9500
20
5.2300
30
0.0
0
VERTEX
5
416
8
Layer1
10
36.7750
20
5.2300
30
0.0
0
VERTEX
5
417
8
Layer1
10
36.7750
20
11.5000
30
0.0
0
VERTEX
5
418
8
Layer1
10
37.6500
20
11.5000
30
0.0
0
VERTEX
5
419
8
Layer1
10
37.6500
20
14.3000
30
0.0
0
VERTEX
5
41a
8
Layer1
10
36.7750
20
14.3000
30
0.0
0
VERTEX
5
41b
8
Layer1
10
36.7750
20
17.5300
30
0.0
0
VERTEX
5
41c
8
Layer1
10
30.1250
20
17.5300
30
0.0
0
VERTEX
5
41d
8
Layer1
10
30.1250
20
16.7300
30
0.0
0
VERTEX
5
41e
8
Layer1
10
29.3500
20
16.7300
30
0.0
0
VERTEX
5
41f
8
Layer1
10
29.3500
20
18.0000
30
0.0
0
VERTEX
5
420
8
Layer1
10
28.5500
20
18.0000
30
0.0
0
VERTEX
5
421
8
Layer1
10
28.5500
20
19.0000
30
0.0
0
VERTEX
5
422
8
Layer1
10
14.5500
20
19.0000
30
0.0
0
VERTEX
5
423
8
Layer1
10
14.5500
20
18.0000
30
0.0
0
VERTEX
5
424
8
Layer1
10
13.7500
20
18.0000
30
0.0
0
VERTEX
5
425
8
Layer1
10
13.7500
20
16.7300
30
0.0
0
VERTEX
5
426
8
Layer1
10
12.9750
20
16.7300
30
0.0
0
VERTEX
5
427
8
Layer1
10
12.9750
20
17.5300
30
0.0
0
VERTEX
5
428
8
Layer1
10
6.3250
20
17.5300
30
0.0
0
VERTEX
5
429
8
Layer1
10
6.3250
20
14.3000
30
0.0
0
VERTEX
5
42a
8
Layer1
10
5.4500
20
14.3000
30
0.0
0
VERTEX
5
42b
8
Layer1
10
5.4500
20
11.5000
30
0.0
0
VERTEX
5
42c
8
Layer1
10
6.3250
20
11.5000
30
0.0
0
VERTEX
5
42d
8
Layer1
10
6.3250
20
5.2300
30
0.0
0
VERTEX
5
42e
8
Layer1
10
8.1500
20
5.2300
30
0.0
0
VERTEX
5
42f
8
Layer1
10
8.1500
20
4.0300
30
0.0
0
VERTEX
5
430
8
Layer1
10
11.1500
20
4.0300
30
0.0
0
VERTEX
5
431
8
Layer1
10
11.1500
20
5.2300
30
0.0
0
SEQEND
5
432
8
Layer1
0
POLYLINE
5
433
8
Layer1
66
1
10
0.0
20
0.0
30
0.0
70
1
0
VERTEX
5
434
8
Layer1
10
57.1250
20
6.0000
30
0.0
0
VERTEX
5
435
8
Layer1
10
57.9250
20
6.0000
30
0.0
0
VERTEX
5
436
8
Layer1
10
57.9250
20
18.0000
30
0.0
0
VERTEX
5
437
8
Layer1
10
57.1250
20
18.0000
30
0.0
0
VERTEX
5
438
8
Layer1
10
57.1250
20
19.0000
30
0.0
0
VERTEX
5
439
8
Layer1
10
43.1250
20
19.0000
30
0.0
0
VERTEX
5
43a
8
Layer1
10
43.1250
20
18.0000
30
0.0
0
VERTEX
5
43b
8
Layer1
10
42.3250
20
18.0000
30
0.0
0
VERTEX
5
43c
8
Layer1
10
42.3250
20
6.0000
30
0.0
0
VERTEX
5
43d
8
Layer1
10
43.1250
20
6.0000
30
0.0
0
VERTEX
5
43e
8
Layer1
10
43.1250
20
5.0000
30
0.0
0
VERTEX
5
43f
8
Layer1
10
57.1250
20
5.0000
30
0.0
0
VERTEX
5
440
8
Layer1
10
57.1250
20
6.0000
30
0.0
0
SEQEND
5
441
8
Layer1
0
ENDSEC
0
EOF
