0
SECTION
2
HEADER
9
$INSUNITS
70
4
9
$INSBASE
10
0.0
20
0.0
30
0.0
9
$EXTMIN
10
0
20
0
9
$EXTMAX
10
81
20
100
0
ENDSEC
0
SECTION
2
TABLES
0
TABLE
2
LTYPE
70
1
0
LTYPE
2
CONTINUOUS
70
64
3
Solid line
72
65
73
0
40
0.0
0
ENDTAB
0
TABLE
2
LAYER
70
1
0
LAYER
2
Layer1
70
64
62
7
6
CONTINUOUS
0
ENDTAB
0
TABLE
2
STYLE
70
0
0
ENDTAB
0
TABLE
2
VIEW
70
0
0
ENDTAB
0
ENDSEC
0
SECTION
2
BLOCKS
0
ENDSEC
0
SECTION
2
ENTITIES
0
POLYLINE
5
442
8
Layer1
66
1
10
0.0
20
0.0
30
0.0
70
1
0
VERTEX
5
443
8
Layer1
10
0.0000
20
0.0000
30
0.0
0
VERTEX
5
444
8
Layer1
10
81.0000
20
0.0000
30
0.0
0
VERTEX
5
445
8
Layer1
10
81.0000
20
100.0000
30
0.0
0
VERTEX
5
446
8
Layer1
10
0.0000
20
100.0000
30
0.0
0
VERTEX
5
447
8
Layer1
10
0.0000
20
0.0000
30
0.0
0
SEQEND
5
448
8
Layer1
0
POLYLINE
5
449
8
Layer1
66
1
10
0.0
20
0.0
30
0.0
70
1
0
VERTEX
5
44a
8
Layer1
10
19.0000
20
82.0000
30
0.0
0
VERTEX
5
44b
8
Layer1
10
19.8000
20
82.0000
30
0.0
0
VERTEX
5
44c
8
Layer1
10
19.8000
20
94.0000
30
0.0
0
VERTEX
5
44d
8
Layer1
10
19.0000
20
94.0000
30
0.0
0
VERTEX
5
44e
8
Layer1
10
19.0000
20
95.0000
30
0.0
0
VERTEX
5
44f
8
Layer1
10
5.0000
20
95.0000
30
0.0
0
VERTEX
5
450
8
Layer1
10
5.0000
20
94.0000
30
0.0
0
VERTEX
5
451
8
Layer1
10
4.2000
20
94.0000
30
0.0
0
VERTEX
5
452
8
Layer1
10
4.2000
20
82.0000
30
0.0
0
VERTEX
5
453
8
Layer1
10
5.0000
20
82.0000
30
0.0
0
VERTEX
5
454
8
Layer1
10
5.0000
20
81.0000
30
0.0
0
VERTEX
5
455
8
Layer1
10
19.0000
20
81.0000
30
0.0
0
VERTEX
5
456
8
Layer1
10
19.0000
20
82.0000
30
0.0
0
SEQEND
5
457
8
Layer1
0
POLYLINE
5
458
8
Layer1
66
1
10
0.0
20
0.0
30
0.0
70
1
0
VERTEX
5
459
8
Layer1
10
38.0000
20
82.0000
30
0.0
0
VERTEX
5
45a
8
Layer1
10
38.8000
20
82.0000
30
0.0
0
VERTEX
5
45b
8
Layer1
10
38.8000
20
94.0000
30
0.0
0
VERTEX
5
45c
8
Layer1
10
38.0000
20
94.0000
30
0.0
0
VERTEX
5
45d
8
Layer1
10
38.0000
20
95.0000
30
0.0
0
VERTEX
5
45e
8
Layer1
10
24.0000
20
95.0000
30
0.0
0
VERTEX
5
45f
8
Layer1
10
24.0000
20
94.0000
30
0.0
0
VERTEX
5
460
8
Layer1
10
23.2000
20
94.0000
30
0.0
0
VERTEX
5
461
8
Layer1
10
23.2000
20
82.0000
30
0.0
0
VERTEX
5
462
8
Layer1
10
24.0000
20
82.0000
30
0.0
0
VERTEX
5
463
8
Layer1
10
24.0000
20
81.0000
30
0.0
0
VERTEX
5
464
8
Layer1
10
38.0000
20
81.0000
30
0.0
0
VERTEX
5
465
8
Layer1
10
38.0000
20
82.0000
30
0.0
0
SEQEND
5
466
8
Layer1
0
POLYLINE
5
467
8
Layer1
66
1
10
0.0
20
0.0
30
0.0
70
1
0
VERTEX
5
468
8
Layer1
10
57.0000
20
82.0000
30
0.0
0
VERTEX
5
469
8
Layer1
10
57.8000
20
82.0000
30
0.0
0
VERTEX
5
46a
8
Layer1
10
57.8000
20
94.0000
30
0.0
0
VERTEX
5
46b
8
Layer1
10
57.0000
20
94.0000
30
0.0
0
VERTEX
5
46c
8
Layer1
10
57.0000
20
95.0000
30
0.0
0
VERTEX
5
46d
8
Layer1
10
43.0000
20
95.0000
30
0.0
0
VERTEX
5
46e
8
Layer1
10
43.0000
20
94.0000
30
0.0
0
VERTEX
5
46f
8
Layer1
10
42.2000
20
94.0000
30
0.0
0
VERTEX
5
470
8
Layer1
10
42.2000
20
82.0000
30
0.0
0
VERTEX
5
471
8
Layer1
10
43.0000
20
82.0000
30
0.0
0
VERTEX
5
472
8
Layer1
10
43.0000
20
81.0000
30
0.0
0
VERTEX
5
473
8
Layer1
10
57.0000
20
81.0000
30
0.0
0
VERTEX
5
474
8
Layer1
10
57.0000
20
82.0000
30
0.0
0
SEQEND
5
475
8
Layer1
0
POLYLINE
5
476
8
Layer1
66
1
10
0.0
20
0.0
30
0.0
70
1
0
VERTEX
5
477
8
Layer1
10
76.0000
20
82.0000
30
0.0
0
VERTEX
5
478
8
Layer1
10
76.8000
20
82.0000
30
0.0
0
VERTEX
5
479
8
Layer1
10
76.8000
20
94.0000
30
0.0
0
VERTEX
5
47a
8
Layer1
10
76.0000
20
94.0000
30
0.0
0
VERTEX
5
47b
8
Layer1
10
76.0000
20
95.0000
30
0.0
0
VERTEX
5
47c
8
Layer1
10
62.0000
20
95.0000
30
0.0
0
VERTEX
5
47d
8
Layer1
10
62.0000
20
94.0000
30
0.0
0
VERTEX
5
47e
8
Layer1
10
61.2000
20
94.0000
30
0.0
0
VERTEX
5
47f
8
Layer1
10
61.2000
20
82.0000
30
0.0
0
VERTEX
5
480
8
Layer1
10
62.0000
20
82.0000
30
0.0
0
VERTEX
5
481
8
Layer1
10
62.0000
20
81.0000
30
0.0
0
VERTEX
5
482
8
Layer1
10
76.0000
20
81.0000
30
0.0
0
VERTEX
5
483
8
Layer1
10
76.0000
20
82.0000
30
0.0
0
SEQEND
5
484
8
Layer1
0
POLYLINE
5
485
8
Layer1
66
1
10
0.0
20
0.0
30
0.0
70
1
0
VERTEX
5
486
8
Layer1
10
19.0000
20
63.0000
30
0.0
0
VERTEX
5
487
8
Layer1
10
19.8000
20
63.0000
30
0.0
0
VERTEX
5
488
8
Layer1
10
19.8000
20
75.0000
30
0.0
0
VERTEX
5
489
8
Layer1
10
19.0000
20
75.0000
30
0.0
0
VERTEX
5
48a
8
Layer1
10
19.0000
20
76.0000
30
0.0
0
VERTEX
5
48b
8
Layer1
10
5.0000
20
76.0000
30
0.0
0
VERTEX
5
48c
8
Layer1
10
5.0000
20
75.0000
30
0.0
0
VERTEX
5
48d
8
Layer1
10
4.2000
20
75.0000
30
0.0
0
VERTEX
5
48e
8
Layer1
10
4.2000
20
63.0000
30
0.0
0
VERTEX
5
48f
8
Layer1
10
5.0000
20
63.0000
30
0.0
0
VERTEX
5
490
8
Layer1
10
5.0000
20
62.0000
30
0.0
0
VERTEX
5
491
8
Layer1
10
19.0000
20
62.0000
30
0.0
0
VERTEX
5
492
8
Layer1
10
19.0000
20
63.0000
30
0.0
0
SEQEND
5
493
8
Layer1
0
POLYLINE
5
494
8
Layer1
66
1
10
0.0
20
0.0
30
0.0
70
1
0
VERTEX
5
495
8
Layer1
10
38.0000
20
63.0000
30
0.0
0
VERTEX
5
496
8
Layer1
10
38.8000
20
63.0000
30
0.0
0
VERTEX
5
497
8
Layer1
10
38.8000
20
75.0000
30
0.0
0
VERTEX
5
498
8
Layer1
10
38.0000
20
75.0000
30
0.0
0
VERTEX
5
499
8
Layer1
10
38.0000
20
76.0000
30
0.0
0
VERTEX
5
49a
8
Layer1
10
24.0000
20
76.0000
30
0.0
0
VERTEX
5
49b
8
Layer1
10
24.0000
20
75.0000
30
0.0
0
VERTEX
5
49c
8
Layer1
10
23.2000
20
75.0000
30
0.0
0
VERTEX
5
49d
8
Layer1
10
23.2000
20
63.0000
30
0.0
0
VERTEX
5
49e
8
Layer1
10
24.0000
20
63.0000
30
0.0
0
VERTEX
5
49f
8
Layer1
10
24.0000
20
62.0000
30
0.0
0
VERTEX
5
4a0
8
Layer1
10
38.0000
20
62.0000
30
0.0
0
VERTEX
5
4a1
8
Layer1
10
38.0000
20
63.0000
30
0.0
0
SEQEND
5
4a2
8
Layer1
0
POLYLINE
5
4a3
8
Layer1
66
1
10
0.0
20
0.0
30
0.0
70
1
0
VERTEX
5
4a4
8
Layer1
10
57.0000
20
63.0000
30
0.0
0
VERTEX
5
4a5
8
Layer1
10
57.8000
20
63.0000
30
0.0
0
VERTEX
5
4a6
8
Layer1
10
57.8000
20
75.0000
30
0.0
0
VERTEX
5
4a7
8
Layer1
10
57.0000
20
75.0000
30
0.0
0
VERTEX
5
4a8
8
Layer1
10
57.0000
20
76.0000
30
0.0
0
VERTEX
5
4a9
8
Layer1
10
43.0000
20
76.0000
30
0.0
0
VERTEX
5
4aa
8
Layer1
10
43.0000
20
75.0000
30
0.0
0
VERTEX
5
4ab
8
Layer1
10
42.2000
20
75.0000
30
0.0
0
VERTEX
5
4ac
8
Layer1
10
42.2000
20
63.0000
30
0.0
0
VERTEX
5
4ad
8
Layer1
10
43.0000
20
63.0000
30
0.0
0
VERTEX
5
4ae
8
Layer1
10
43.0000
20
62.0000
30
0.0
0
VERTEX
5
4af
8
Layer1
10
57.0000
20
62.0000
30
0.0
0
VERTEX
5
4b0
8
Layer1
10
57.0000
20
63.0000
30
0.0
0
SEQEND
5
4b1
8
Layer1
0
POLYLINE
5
4b2
8
Layer1
66
1
10
0.0
20
0.0
30
0.0
70
1
0
VERTEX
5
4b3
8
Layer1
10
62.2300
20
69.9000
30
0.0
0
VERTEX
5
4b4
8
Layer1
10
62.2300
20
68.0750
30
0.0
0
VERTEX
5
4b5
8
Layer1
10
63.0300
20
68.0750
30
0.0
0
VERTEX
5
4b6
8
Layer1
10
63.0300
20
67.3000
30
0.0
0
VERTEX
5
4b7
8
Layer1
10
63.0000
20
67.3000
30
0.0
0
VERTEX
5
4b8
8
Layer1
10
63.0000
20
66.5000
30
0.0
0
VERTEX
5
4b9
8
Layer1
10
62.0000
20
66.5000
30
0.0
0
VERTEX
5
4ba
8
Layer1
10
62.0000
20
52.5000
30
0.0
0
VERTEX
5
4bb
8
Layer1
10
63.0000
20
52.5000
30
0.0
0
VERTEX
5
4bc
8
Layer1
10
63.0000
20
51.7000
30
0.0
0
VERTEX
5
4bd
8
Layer1
10
63.0300
20
51.7000
30
0.0
0
VERTEX
5
4be
8
Layer1
10
63.0300
20
50.9250
30
0.0
0
VERTEX
5
4bf
8
Layer1
10
62.2300
20
50.9250
30
0.0
0
VERTEX
5
4c0
8
Layer1
10
62.2300
20
49.1000
30
0.0
0
VERTEX
5
4c1
8
Layer1
10
61.0300
20
49.1000
30
0.0
0
VERTEX
5
4c2
8
Layer1
10
61.0300
20
46.1000
30
0.0
0
VERTEX
5
4c3
8
Layer1
10
62.2300
20
46.1000
30
0.0
0
VERTEX
5
4c4
8
Layer1
10
62.2300
20
44.2750
30
0.0
0
VERTEX
5
4c5
8
Layer1
10
68.5000
20
44.2750
30
0.0
0
VERTEX
5
4c6
8
Layer1
10
68.5000
20
43.4000
30
0.0
0
VERTEX
5
4c7
8
Layer1
10
71.3000
20
43.4000
30
0.0
0
VERTEX
5
4c8
8
Layer1
10
71.3000
20
44.2750
30
0.0
0
VERTEX
5
4c9
8
Layer1
10
74.5300
20
44.2750
30
0.0
0
VERTEX
5
4ca
8
Layer1
10
74.5300
20
50.9250
30
0.0
0
VERTEX
5
4cb
8
Layer1
10
73.7300
20
50.9250
30
0.0
0
VERTEX
5
4cc
8
Layer1
10
73.7300
20
51.7000
30
0.0
0
VERTEX
5
4cd
8
Layer1
10
75.0000
20
51.7000
30
0.0
0
VERTEX
5
4ce
8
Layer1
10
75.0000
20
52.5000
30
0.0
0
VERTEX
5
4cf
8
Layer1
10
76.0000
20
52.5000
30
0.0
0
VERTEX
5
4d0
8
Layer1
10
76.0000
20
66.5000
30
0.0
0
VERTEX
5
4d1
8
Layer1
10
75.0000
20
66.5000
30
0.0
0
VERTEX
5
4d2
8
Layer1
10
75.0000
20
67.3000
30
0.0
0
VERTEX
5
4d3
8
Layer1
10
73.7300
20
67.3000
30
0.0
0
VERTEX
5
4d4
8
Layer1
10
73.7300
20
68.0750
30
0.0
0
VERTEX
5
4d5
8
Layer1
10
74.5300
20
68.0750
30
0.0
0
VERTEX
5
4d6
8
Layer1
10
74.5300
20
74.7250
30
0.0
0
VERTEX
5
4d7
8
Layer1
10
71.3000
20
74.7250
30
0.0
0
VERTEX
5
4d8
8
Layer1
10
71.3000
20
75.6000
30
0.0
0
VERTEX
5
4d9
8
Layer1
10
68.5000
20
75.6000
30
0.0
0
VERTEX
5
4da
8
Layer1
10
68.5000
20
74.7250
30
0.0
0
VERTEX
5
4db
8
Layer1
10
62.2300
20
74.7250
30
0.0
0
VERTEX
5
4dc
8
Layer1
10
62.2300
20
72.9000
30
0.0
0
VERTEX
5
4dd
8
Layer1
10
61.0300
20
72.9000
30
0.0
0
VERTEX
5
4de
8
Layer1
10
61.0300
20
69.9000
30
0.0
0
VERTEX
5
4df
8
Layer1
10
62.2300
20
69.9000
30
0.0
0
SEQEND
5
4e0
8
Layer1
0
POLYLINE
5
4e1
8
Layer1
66
1
10
0.0
20
0.0
30
0.0
70
1
0
VERTEX
5
4e2
8
Layer1
10
19.0000
20
44.0000
30
0.0
0
VERTEX
5
4e3
8
Layer1
10
19.8000
20
44.0000
30
0.0
0
VERTEX
5
4e4
8
Layer1
10
19.8000
20
56.0000
30
0.0
0
VERTEX
5
4e5
8
Layer1
10
19.0000
20
56.0000
30
0.0
0
VERTEX
5
4e6
8
Layer1
10
19.0000
20
57.0000
30
0.0
0
VERTEX
5
4e7
8
Layer1
10
5.0000
20
57.0000
30
0.0
0
VERTEX
5
4e8
8
Layer1
10
5.0000
20
56.0000
30
0.0
0
VERTEX
5
4e9
8
Layer1
10
4.2000
20
56.0000
30
0.0
0
VERTEX
5
4ea
8
Layer1
10
4.2000
20
44.0000
30
0.0
0
VERTEX
5
4eb
8
Layer1
10
5.0000
20
44.0000
30
0.0
0
VERTEX
5
4ec
8
Layer1
10
5.0000
20
43.0000
30
0.0
0
VERTEX
5
4ed
8
Layer1
10
19.0000
20
43.0000
30
0.0
0
VERTEX
5
4ee
8
Layer1
10
19.0000
20
44.0000
30
0.0
0
SEQEND
5
4ef
8
Layer1
0
POLYLINE
5
4f0
8
Layer1
66
1
10
0.0
20
0.0
30
0.0
70
1
0
VERTEX
5
4f1
8
Layer1
10
38.0000
20
44.0000
30
0.0
0
VERTEX
5
4f2
8
Layer1
10
38.8000
20
44.0000
30
0.0
0
VERTEX
5
4f3
8
Layer1
10
38.8000
20
56.0000
30
0.0
0
VERTEX
5
4f4
8
Layer1
10
38.0000
20
56.0000
30
0.0
0
VERTEX
5
4f5
8
Layer1
10
38.0000
20
57.0000
30
0.0
0
VERTEX
5
4f6
8
Layer1
10
24.0000
20
57.0000
30
0.0
0
VERTEX
5
4f7
8
Layer1
10
24.0000
20
56.0000
30
0.0
0
VERTEX
5
4f8
8
Layer1
10
23.2000
20
56.0000
30
0.0
0
VERTEX
5
4f9
8
Layer1
10
23.2000
20
44.0000
30
0.0
0
VERTEX
5
4fa
8
Layer1
10
24.0000
20
44.0000
30
0.0
0
VERTEX
5
4fb
8
Layer1
10
24.0000
20
43.0000
30
0.0
0
VERTEX
5
4fc
8
Layer1
10
38.0000
20
43.0000
30
0.0
0
VERTEX
5
4fd
8
Layer1
10
38.0000
20
44.0000
30
0.0
0
SEQEND
5
4fe
8
Layer1
0
POLYLINE
5
4ff
8
Layer1
66
1
10
0.0
20
0.0
30
0.0
70
1
0
VERTEX
5
500
8
Layer1
10
57.0000
20
44.0000
30
0.0
0
VERTEX
5
501
8
Layer1
10
57.8000
20
44.0000
30
0.0
0
VERTEX
5
502
8
Layer1
10
57.8000
20
56.0000
30
0.0
0
VERTEX
5
503
8
Layer1
10
57.0000
20
56.0000
30
0.0
0
VERTEX
5
504
8
Layer1
10
57.0000
20
57.0000
30
0.0
0
VERTEX
5
505
8
Layer1
10
43.0000
20
57.0000
30
0.0
0
VERTEX
5
506
8
Layer1
10
43.0000
20
56.0000
30
0.0
0
VERTEX
5
507
8
Layer1
10
42.2000
20
56.0000
30
0.0
0
VERTEX
5
508
8
Layer1
10
42.2000
20
44.0000
30
0.0
0
VERTEX
5
509
8
Layer1
10
43.0000
20
44.0000
30
0.0
0
VERTEX
5
50a
8
Layer1
10
43.0000
20
43.0000
30
0.0
0
VERTEX
5
50b
8
Layer1
10
57.0000
20
43.0000
30
0.0
0
VERTEX
5
50c
8
Layer1
10
57.0000
20
44.0000
30
0.0
0
SEQEND
5
50d
8
Layer1
0
POLYLINE
5
50e
8
Layer1
66
1
10
0.0
20
0.0
30
0.0
70
1
0
VERTEX
5
50f
8
Layer1
10
19.0000
20
25.0000
30
0.0
0
VERTEX
5
510
8
Layer1
10
19.8000
20
25.0000
30
0.0
0
VERTEX
5
511
8
Layer1
10
19.8000
20
37.0000
30
0.0
0
VERTEX
5
512
8
Layer1
10
19.0000
20
37.0000
30
0.0
0
VERTEX
5
513
8
Layer1
10
19.0000
20
38.0000
30
0.0
0
VERTEX
5
514
8
Layer1
10
5.0000
20
38.0000
30
0.0
0
VERTEX
5
515
8
Layer1
10
5.0000
20
37.0000
30
0.0
0
VERTEX
5
516
8
Layer1
10
4.2000
20
37.0000
30
0.0
0
VERTEX
5
517
8
Layer1
10
4.2000
20
25.0000
30
0.0
0
VERTEX
5
518
8
Layer1
10
5.0000
20
25.0000
30
0.0
0
VERTEX
5
519
8
Layer1
10
5.0000
20
24.0000
30
0.0
0
VERTEX
5
51a
8
Layer1
10
19.0000
20
24.0000
30
0.0
0
VERTEX
5
51b
8
Layer1
10
19.0000
20
25.0000
30
0.0
0
SEQEND
5
51c
8
Layer1
0
POLYLINE
5
51d
8
Layer1
66
1
10
0.0
20
0.0
30
0.0
70
1
0
VERTEX
5
51e
8
Layer1
10
38.0000
20
25.0000
30
0.0
0
VERTEX
5
51f
8
Layer1
10
38.8000
20
25.0000
30
0.0
0
VERTEX
5
520
8
Layer1
10
38.8000
20
37.0000
30
0.0
0
VERTEX
5
521
8
Layer1
10
38.0000
20
37.0000
30
0.0
0
VERTEX
5
522
8
Layer1
10
38.0000
20
38.0000
30
0.0
0
VERTEX
5
523
8
Layer1
10
24.0000
20
38.0000
30
0.0
0
VERTEX
5
524
8
Layer1
10
24.0000
20
37.0000
30
0.0
0
VERTEX
5
525
8
Layer1
10
23.2000
20
37.0000
30
0.0
0
VERTEX
5
526
8
Layer1
10
23.2000
20
25.0000
30
0.0
0
VERTEX
5
527
8
Layer1
10
24.0000
20
25.0000
30
0.0
0
VERTEX
5
528
8
Layer1
10
24.0000
20
24.0000
30
0.0
0
VERTEX
5
529
8
Layer1
10
38.0000
20
24.0000
30
0.0
0
VERTEX
5
52a
8
Layer1
10
38.0000
20
25.0000
30
0.0
0
SEQEND
5
52b
8
Layer1
0
POLYLINE
5
52c
8
Layer1
66
1
10
0.0
20
0.0
30
0.0
70
1
0
VERTEX
5
52d
8
Layer1
10
57.0000
20
25.0000
30
0.0
0
VERTEX
5
52e
8
Layer1
10
57.8000
20
25.0000
30
0.0
0
VERTEX
5
52f
8
Layer1
10
57.8000
20
37.0000
30
0.0
0
VERTEX
5
530
8
Layer1
10
57.0000
20
37.0000
30
0.0
0
VERTEX
5
531
8
Layer1
10
57.0000
20
38.0000
30
0.0
0
VERTEX
5
532
8
Layer1
10
43.0000
20
38.0000
30
0.0
0
VERTEX
5
533
8
Layer1
10
43.0000
20
37.0000
30
0.0
0
VERTEX
5
534
8
Layer1
10
42.2000
20
37.0000
30
0.0
0
VERTEX
5
535
8
Layer1
10
42.2000
20
25.0000
30
0.0
0
VERTEX
5
536
8
Layer1
10
43.0000
20
25.0000
30
0.0
0
VERTEX
5
537
8
Layer1
10
43.0000
20
24.0000
30
0.0
0
VERTEX
5
538
8
Layer1
10
57.0000
20
24.0000
30
0.0
0
VERTEX
5
539
8
Layer1
10
57.0000
20
25.0000
30
0.0
0
SEQEND
5
53a
8
Layer1
0
POLYLINE
5
53b
8
Layer1
66
1
10
0.0
20
0.0
30
0.0
70
1
0
VERTEX
5
53c
8
Layer1
10
62.2300
20
31.9000
30
0.0
0
VERTEX
5
53d
8
Layer1
10
62.2300
20
30.0750
30
0.0
0
VERTEX
5
53e
8
Layer1
10
63.0300
20
30.0750
30
0.0
0
VERTEX
5
53f
8
Layer1
10
63.0300
20
29.3000
30
0.0
0
VERTEX
5
540
8
Layer1
10
63.0000
20
29.3000
30
0.0
0
VERTEX
5
541
8
Layer1
10
63.0000
20
28.5000
30
0.0
0
VERTEX
5
542
8
Layer1
10
62.0000
20
28.5000
30
0.0
0
VERTEX
5
543
8
Layer1
10
62.0000
20
14.5000
30
0.0
0
VERTEX
5
544
8
Layer1
10
63.0000
20
14.5000
30
0.0
0
VERTEX
5
545
8
Layer1
10
63.0000
20
13.7000
30
0.0
0
VERTEX
5
546
8
Layer1
10
63.0300
20
13.7000
30
0.0
0
VERTEX
5
547
8
Layer1
10
63.0300
20
12.9250
30
0.0
0
VERTEX
5
548
8
Layer1
10
62.2300
20
12.9250
30
0.0
0
VERTEX
5
549
8
Layer1
10
62.2300
20
11.1000
30
0.0
0
VERTEX
5
54a
8
Layer1
10
61.0300
20
11.1000
30
0.0
0
VERTEX
5
54b
8
Layer1
10
61.0300
20
8.1000
30
0.0
0
VERTEX
5
54c
8
Layer1
10
62.2300
20
8.1000
30
0.0
0
VERTEX
5
54d
8
Layer1
10
62.2300
20
6.2750
30
0.0
0
VERTEX
5
54e
8
Layer1
10
68.5000
20
6.2750
30
0.0
0
VERTEX
5
54f
8
Layer1
10
68.5000
20
5.4000
30
0.0
0
VERTEX
5
550
8
Layer1
10
71.3000
20
5.4000
30
0.0
0
VERTEX
5
551
8
Layer1
10
71.3000
20
6.2750
30
0.0
0
VERTEX
5
552
8
Layer1
10
74.5300
20
6.2750
30
0.0
0
VERTEX
5
553
8
Layer1
10
74.5300
20
12.9250
30
0.0
0
VERTEX
5
554
8
Layer1
10
73.7300
20
12.9250
30
0.0
0
VERTEX
5
555
8
Layer1
10
73.7300
20
13.7000
30
0.0
0
VERTEX
5
556
8
Layer1
10
75.0000
20
13.7000
30
0.0
0
VERTEX
5
557
8
Layer1
10
75.0000
20
14.5000
30
0.0
0
VERTEX
5
558
8
Layer1
10
76.0000
20
14.5000
30
0.0
0
VERTEX
5
559
8
Layer1
10
76.0000
20
28.5000
30
0.0
0
VERTEX
5
55a
8
Layer1
10
75.0000
20
28.5000
30
0.0
0
VERTEX
5
55b
8
Layer1
10
75.0000
20
29.3000
30
0.0
0
VERTEX
5
55c
8
Layer1
10
73.7300
20
29.3000
30
0.0
0
VERTEX
5
55d
8
Layer1
10
73.7300
20
30.0750
30
0.0
0
VERTEX
5
55e
8
Layer1
10
74.5300
20
30.0750
30
0.0
0
VERTEX
5
55f
8
Layer1
10
74.5300
20
36.7250
30
0.0
0
VERTEX
5
560
8
Layer1
10
71.3000
20
36.7250
30
0.0
0
VERTEX
5
561
8
Layer1
10
71.3000
20
37.6000
30
0.0
0
VERTEX
5
562
8
Layer1
10
68.5000
20
37.6000
30
0.0
0
VERTEX
5
563
8
Layer1
10
68.5000
20
36.7250
30
0.0
0
VERTEX
5
564
8
Layer1
10
62.2300
20
36.7250
30
0.0
0
VERTEX
5
565
8
Layer1
10
62.2300
20
34.9000
30
0.0
0
VERTEX
5
566
8
Layer1
10
61.0300
20
34.9000
30
0.0
0
VERTEX
5
567
8
Layer1
10
61.0300
20
31.9000
30
0.0
0
VERTEX
5
568
8
Layer1
10
62.2300
20
31.9000
30
0.0
0
SEQEND
5
569
8
Layer1
0
POLYLINE
5
56a
8
Layer1
66
1
10
0.0
20
0.0
30
0.0
70
1
0
VERTEX
5
56b
8
Layer1
10
11.1000
20
5.2300
30
0.0
0
VERTEX
5
56c
8
Layer1
10
12.9250
20
5.2300
30
0.0
0
VERTEX
5
56d
8
Layer1
10
12.9250
20
6.0300
30
0.0
0
VERTEX
5
56e
8
Layer1
10
13.7000
20
6.0300
30
0.0
0
VERTEX
5
56f
8
Layer1
10
13.7000
20
6.0000
30
0.0
0
VERTEX
5
570
8
Layer1
10
14.5000
20
6.0000
30
0.0
0
VERTEX
5
571
8
Layer1
10
14.5000
20
5.0000
30
0.0
0
VERTEX
5
572
8
Layer1
10
28.5000
20
5.0000
30
0.0
0
VERTEX
5
573
8
Layer1
10
28.5000
20
6.0000
30
0.0
0
VERTEX
5
574
8
Layer1
10
29.3000
20
6.0000
30
0.0
0
VERTEX
5
575
8
Layer1
10
29.3000
20
6.0300
30
0.0
0
VERTEX
5
576
8
Layer1
10
30.0750
20
6.0300
30
0.0
0
VERTEX
5
577
8
Layer1
10
30.0750
20
5.2300
30
0.0
0
VERTEX
5
578
8
Layer1
10
31.9000
20
5.2300
30
0.0
0
VERTEX
5
579
8
Layer1
10
31.9000
20
4.0300
30
0.0
0
VERTEX
5
57a
8
Layer1
10
34.9000
20
4.0300
30
0.0
0
VERTEX
5
57b
8
Layer1
10
34.9000
20
5.2300
30
0.0
0
VERTEX
5
57c
8
Layer1
10
36.7250
20
5.2300
30
0.0
0
VERTEX
5
57d
8
Layer1
10
36.7250
20
11.5000
30
0.0
0
VERTEX
5
57e
8
Layer1
10
37.6000
20
11.5000
30
0.0
0
VERTEX
5
57f
8
Layer1
10
37.6000
20
14.3000
30
0.0
0
VERTEX
5
580
8
Layer1
10
36.7250
20
14.3000
30
0.0
0
VERTEX
5
581
8
Layer1
10
36.7250
20
17.5300
30
0.0
0
VERTEX
5
582
8
Layer1
10
30.0750
20
17.5300
30
0.0
0
VERTEX
5
583
8
Layer1
10
30.0750
20
16.7300
30
0.0
0
VERTEX
5
584
8
Layer1
10
29.3000
20
16.7300
30
0.0
0
VERTEX
5
585
8
Layer1
10
29.3000
20
18.0000
30
0.0
0
VERTEX
5
586
8
Layer1
10
28.5000
20
18.0000
30
0.0
0
VERTEX
5
587
8
Layer1
10
28.5000
20
19.0000
30
0.0
0
VERTEX
5
588
8
Layer1
10
14.5000
20
19.0000
30
0.0
0
VERTEX
5
589
8
Layer1
10
14.5000
20
18.0000
30
0.0
0
VERTEX
5
58a
8
Layer1
10
13.7000
20
18.0000
30
0.0
0
VERTEX
5
58b
8
Layer1
10
13.7000
20
16.7300
30
0.0
0
VERTEX
5
58c
8
Layer1
10
12.9250
20
16.7300
30
0.0
0
VERTEX
5
58d
8
Layer1
10
12.9250
20
17.5300
30
0.0
0
VERTEX
5
58e
8
Layer1
10
6.2750
20
17.5300
30
0.0
0
VERTEX
5
58f
8
Layer1
10
6.2750
20
14.3000
30
0.0
0
VERTEX
5
590
8
Layer1
10
5.4000
20
14.3000
30
0.0
0
VERTEX
5
591
8
Layer1
10
5.4000
20
11.5000
30
0.0
0
VERTEX
5
592
8
Layer1
10
6.2750
20
11.5000
30
0.0
0
VERTEX
5
593
8
Layer1
10
6.2750
20
5.2300
30
0.0
0
VERTEX
5
594
8
Layer1
10
8.1000
20
5.2300
30
0.0
0
VERTEX
5
595
8
Layer1
10
8.1000
20
4.0300
30
0.0
0
VERTEX
5
596
8
Layer1
10
11.1000
20
4.0300
30
0.0
0
VERTEX
5
597
8
Layer1
10
11.1000
20
5.2300
30
0.0
0
SEQEND
5
598
8
Layer1
0
POLYLINE
5
599
8
Layer1
66
1
10
0.0
20
0.0
30
0.0
70
1
0
VERTEX
5
59a
8
Layer1
10
57.0000
20
6.0000
30
0.0
0
VERTEX
5
59b
8
Layer1
10
57.8000
20
6.0000
30
0.0
0
VERTEX
5
59c
8
Layer1
10
57.8000
20
18.0000
30
0.0
0
VERTEX
5
59d
8
Layer1
10
57.0000
20
18.0000
30
0.0
0
VERTEX
5
59e
8
Layer1
10
57.0000
20
19.0000
30
0.0
0
VERTEX
5
59f
8
Layer1
10
43.0000
20
19.0000
30
0.0
0
VERTEX
5
5a0
8
Layer1
10
43.0000
20
18.0000
30
0.0
0
VERTEX
5
5a1
8
Layer1
10
42.2000
20
18.0000
30
0.0
0
VERTEX
5
5a2
8
Layer1
10
42.2000
20
6.0000
30
0.0
0
VERTEX
5
5a3
8
Layer1
10
43.0000
20
6.0000
30
0.0
0
VERTEX
5
5a4
8
Layer1
10
43.0000
20
5.0000
30
0.0
0
VERTEX
5
5a5
8
Layer1
10
57.0000
20
5.0000
30
0.0
0
VERTEX
5
5a6
8
Layer1
10
57.0000
20
6.0000
30
0.0
0
SEQEND
5
5a7
8
Layer1
0
ENDSEC
0
EOF
